<?xml version="1.0" encoding="UTF-8"?>
<svg width="25px" height="25px" viewBox="0 0 25 25" version="1.1" xmlns="http://www.w3.org/2000/svg" xmlns:xlink="http://www.w3.org/1999/xlink">
    <title>icons/message/warning</title>
    <g id="icons/message/warning" stroke="none" stroke-width="1" fill="none" fill-rule="evenodd">
        <rect id="Rectangle" fill="#F0A027" x="0" y="0" width="25" height="25" rx="12.5"></rect>
        <g id="icons/warning" transform="translate(4.75, 5.2727)" fill="#FFFFFF">
            <path d="M8.52137449,0.153866252 C8.7174127,0.262788187 8.87965622,0.423609997 8.99029932,0.618681964 L16,12.9773028 L0,12.9773028 L6.86144028,0.628050457 C7.1888761,0.03872993 7.93205396,-0.17356957 8.52137449,0.153866252 Z M7.93232484,9.64455636 C7.48726115,9.64455636 7.125,10.012162 7.125,10.4512465 C7.125,10.8801197 7.48726115,11.2273028 7.93232484,11.2273028 C8.38773885,11.2273028 8.75,10.8801197 8.75,10.4512465 C8.75,10.012162 8.38773885,9.64455636 7.93232484,9.64455636 Z M8.5843949,3.97730283 L7.2388535,3.97730283 L7.2388535,6.06040143 L7.49761146,9.05230283 L8.32563694,9.05230283 L8.5843949,6.06040143 L8.5843949,3.97730283 Z" id="Combined-Shape"></path>
        </g>
    </g>
</svg>