<?xml version="1.0" encoding="UTF-8"?>
<svg width="25px" height="25px" viewBox="0 0 25 25" version="1.1" xmlns="http://www.w3.org/2000/svg" xmlns:xlink="http://www.w3.org/1999/xlink">
    <title>icons/float</title>
    <g id="icons/float" stroke="none" stroke-width="1" fill="none" fill-rule="evenodd">
        <g id="Group-2" transform="translate(5, 0)" stroke="#FFFFFF">
            <path d="M13,15 L13,15 L13,18 C13,19.1045695 12.1045695,20 11,20 L2,20 C0.8954305,20 0,19.1045695 0,18 L0,9 C0,7.8954305 0.8954305,7 2,7 L5,7 L5,7" id="Path" stroke-width="1.2"></path>
            <g id="Group" transform="translate(10.5, 9.4801) rotate(225) translate(-10.5, -9.4801)translate(4.8431, 1.7301)" stroke-width="1.5">
                <line x1="5.65680425" y1="14.75" x2="5.65680425" y2="8.99200684e-15" id="Path-27"></line>
                <path d="M1.65685425,5.84314575 L1.65685425,12.8431458 C1.65685425,13.3954305 2.1045695,13.8431458 2.65685425,13.8431458 L9.65685425,13.8431458 L9.65685425,13.8431458" id="Path-21" transform="translate(5.6569, 9.8431) rotate(-45) translate(-5.6569, -9.8431)"></path>
            </g>
        </g>
    </g>
</svg>