<?xml version="1.0" encoding="UTF-8"?>
<svg width="153px" height="85px" viewBox="0 0 153 85" version="1.1" xmlns="http://www.w3.org/2000/svg" xmlns:xlink="http://www.w3.org/1999/xlink">
    <title>icons/logo-svt</title>
    <g id="icons/logo-svt" stroke="none" stroke-width="1" fill="none" fill-rule="evenodd">
        <path d="M0,72.5204256 L10.3063175,64.960181 C10.3063175,64.960181 15.7767493,72.5547432 23.3663201,72.5547432 C28.4373251,72.5547432 32.8927896,69.7703744 32.8927896,65.2967105 C32.8927896,54.2286435 3.52740237,57.1110187 3.52740237,35.579463 C3.52740237,24.9108413 11.6535786,17 23.7393842,17 C37.0578035,17 43.1788751,26.9034304 43.1788751,26.9034304 L33.3429495,34.0929823 C33.3429495,34.0929823 29.4312941,29.3583805 23.9789484,29.3583805 C19.31672,29.3583805 16.6407437,31.9946578 16.6407437,35.531542 C16.6407437,46.4702221 46,44.3134647 46,65.0540135 C46,76.0863716 37.5214514,85 23.4552179,85 C8.24925363,85 0,72.520271 0,72.520271 L0,72.5204256 Z" id="Path" fill="#000000" fill-rule="nonzero"></path>
        <polygon id="Path" fill="#000000" fill-rule="nonzero" points="47 19 61.2466347 19 78.4909485 64.9314479 95.6733715 19 110 19 85.5222033 84 71.2958378 84"></polygon>
        <path d="M116.026409,0 L129.18248,0 L129.18248,18.6140467 L149.269046,18.6140467 L144.530385,31.4763223 L129.181866,31.4763223 L129.181866,62.8929015 C129.181866,67.3174235 132.56397,72.4215426 137.93784,72.4215426 C141.789633,72.4215426 144.761468,69.8062076 144.761468,69.8062076 L153,79.1675987 C153,79.1675987 147.788579,85 137.774009,85 C124.157768,85 116,73.3516306 116,63.5539151 L116.026409,0 Z" id="Path" fill="#000000" fill-rule="nonzero"></path>
    </g>
</svg>