<?xml version="1.0" encoding="UTF-8"?>
<svg width="62px" height="9px" viewBox="0 0 62 9" version="1.1" xmlns="http://www.w3.org/2000/svg" xmlns:xlink="http://www.w3.org/1999/xlink">
    <title>icons/logo-design</title>
    <g id="Page-1" stroke="none" stroke-width="1" fill="none" fill-rule="evenodd">
        <g id="Desktop-Copy-2" transform="translate(-499.000000, -997.000000)" fill="#ffffff" fill-rule="nonzero">
            <g id="Footer" transform="translate(391.000000, 927.000000)">
                <path d="M111.335,78.11 C112.754,78.11 113.909,77.263 113.909,75.866 C113.909,74.81 113.26,74.15 111.918,73.776 L111.038,73.534 C109.883,73.215 109.421,72.973 109.421,72.225 C109.421,71.51 110.026,71.004 110.917,71.004 C111.797,71.004 112.512,71.411 113.128,72.005 L113.744,71.356 C112.974,70.663 112.171,70.19 110.917,70.19 C109.586,70.19 108.475,70.993 108.475,72.324 C108.475,73.237 109.058,73.93 110.488,74.315 L111.423,74.568 C112.589,74.887 112.952,75.25 112.952,75.943 C112.952,76.691 112.391,77.296 111.324,77.296 C110.158,77.296 109.432,76.625 108.794,75.954 L108.123,76.625 C109.058,77.571 110.015,78.11 111.335,78.11 Z M118.397,78 C118.661,78 118.793,77.879 118.87,77.648 L121.455,70.3 L120.465,70.3 L118.144,77.12 L115.801,70.3 L114.789,70.3 L117.374,77.648 C117.451,77.879 117.583,78 117.847,78 L118.397,78 Z M125.294,78 L125.294,71.07 L127.703,71.07 L127.703,70.3 L121.917,70.3 L121.917,71.07 L124.326,71.07 L124.326,78 L125.294,78 Z M134.27,78 C136.294,78 137.449,76.603 137.449,74.865 L137.449,73.435 C137.449,71.697 136.294,70.3 134.27,70.3 L131.355,70.3 L131.355,78 L134.27,78 Z M134.138,77.23 L132.323,77.23 L132.323,71.07 L134.138,71.07 C135.865,71.07 136.481,72.17 136.481,73.391 L136.481,74.909 C136.481,76.13 135.865,77.23 134.138,77.23 Z M144.192,78 L144.192,77.23 L140.067,77.23 L140.067,74.425 L143.642,74.425 L143.642,73.655 L140.067,73.655 L140.067,71.07 L144.192,71.07 L144.192,70.3 L139.099,70.3 L139.099,78 L144.192,78 Z M148.482,78.11 C149.901,78.11 151.056,77.263 151.056,75.866 C151.056,74.81 150.407,74.15 149.065,73.776 L148.185,73.534 C147.03,73.215 146.568,72.973 146.568,72.225 C146.568,71.51 147.173,71.004 148.064,71.004 C148.944,71.004 149.659,71.411 150.275,72.005 L150.891,71.356 C150.121,70.663 149.318,70.19 148.064,70.19 C146.733,70.19 145.622,70.993 145.622,72.324 C145.622,73.237 146.205,73.93 147.635,74.315 L148.57,74.568 C149.736,74.887 150.099,75.25 150.099,75.943 C150.099,76.691 149.538,77.296 148.471,77.296 C147.305,77.296 146.579,76.625 145.941,75.954 L145.27,76.625 C146.205,77.571 147.162,78.11 148.482,78.11 Z M153.652,78 L153.652,70.3 L152.684,70.3 L152.684,78 L153.652,78 Z M158.525,78.11 C160.725,78.11 161.594,76.625 161.594,75.14 L161.594,74.095 L158.613,74.095 L158.613,74.865 L160.626,74.865 L160.626,75.371 C160.626,76.229 160.164,77.296 158.525,77.296 C157.084,77.296 156.292,76.306 156.292,74.909 L156.292,73.391 C156.292,71.994 157.084,71.004 158.525,71.004 C159.757,71.004 160.329,71.741 160.725,72.357 L161.495,71.851 C160.912,70.971 160.098,70.19 158.525,70.19 C156.391,70.19 155.324,71.697 155.324,73.435 L155.324,74.865 C155.324,76.603 156.391,78.11 158.525,78.11 Z M164.091,78 L164.091,71.664 L168.183,77.681 C168.381,77.967 168.491,78 168.733,78 L169.019,78 C169.228,78 169.349,77.89 169.349,77.67 L169.349,70.3 L168.447,70.3 L168.447,76.559 L164.19,70.3 L163.189,70.3 L163.189,78 L164.091,78 Z" id="icons/logo-design"></path>
            </g>
        </g>
    </g>
</svg>