<?xml version="1.0" encoding="UTF-8"?>
<svg width="25px" height="25px" viewBox="0 0 25 25" version="1.1" xmlns="http://www.w3.org/2000/svg" xmlns:xlink="http://www.w3.org/1999/xlink">
    <title>icons/preferences</title>
    <g id="icons/preferences" stroke="none" stroke-width="1" fill="none" fill-rule="evenodd">
        <g transform="translate(2.500000, 2.500000)" fill="#FFFFFF" fill-rule="nonzero" id="Shape">
            <path d="M19.3528571,8.08142857 C19.5471429,7.88714286 19.7685714,7.74 20,7.61714286 C19.7514286,6.57 19.3214286,5.56 18.7428571,4.61714286 C18.4942857,4.69142857 18.2385714,4.74428571 17.9671429,4.74428571 C16.4685714,4.74428571 15.2557143,3.53 15.2557143,2.03285714 C15.2557143,1.76142857 15.3071429,1.50571429 15.3814286,1.25857143 C14.4385714,0.68 13.43,0.25 12.3814286,0 C12.2585714,0.231428571 12.1128571,0.452857143 11.9171429,0.648571429 C11.3885714,1.17714286 10.6942857,1.44285714 10,1.44285714 C9.30571429,1.44285714 8.61142857,1.17714286 8.08285714,0.648571429 C7.88714286,0.452857143 7.74142857,0.231428571 7.61857143,0 C6.57,0.248571429 5.56142857,0.68 4.61857143,1.25857143 C4.69142857,1.50571429 4.74285714,1.76142857 4.74285714,2.03285714 C4.74285714,3.53142857 3.52857143,4.74428571 2.03142857,4.74428571 C1.75428571,4.74428571 1.49428571,4.69 1.24285714,4.61428571 C0.662857143,5.55714286 0.252857143,6.57428571 0.00285714286,7.62 C0.232857143,7.74285714 0.454285714,7.88857143 0.647142857,8.08142857 C1.70571429,9.14 1.70571429,10.8571429 0.647142857,11.9157143 C0.454285714,12.1114286 0.231428571,12.2585714 0,12.3828571 C0.248571429,13.43 0.678571429,14.44 1.25714286,15.3828571 C1.50428571,15.3085714 1.76,15.2571429 2.03142857,15.2571429 C3.53,15.2571429 4.74285714,16.4714286 4.74285714,17.9685714 C4.74285714,18.2457143 4.68857143,18.5057143 4.61285714,18.7571429 C5.55571429,19.3371429 6.57285714,19.7471429 7.61857143,19.9971429 C7.74142857,19.7671429 7.88857143,19.5457143 8.08142857,19.3514286 C8.61142857,18.8228571 9.30571429,18.5571429 10,18.5571429 C10.6942857,18.5571429 11.3885714,18.8228571 11.9171429,19.3514286 C12.1128571,19.5471429 12.2585714,19.7671429 12.3814286,20 C13.4285714,19.7514286 14.4385714,19.3214286 15.3814286,18.7428571 C15.3071429,18.4957143 15.2557143,18.24 15.2557143,17.9685714 C15.2557143,16.47 16.47,15.2571429 17.9671429,15.2571429 C18.2442857,15.2571429 18.5042857,15.3114286 18.7557143,15.3871429 C19.3357143,14.4442857 19.7457143,13.4271429 19.9957143,12.3814286 C19.7642857,12.2585714 19.5442857,12.1114286 19.35,11.9185714 C18.2928571,10.8585714 18.2928571,9.14142857 19.3528571,8.08142857 Z M17.9842857,13.8328571 C17.9785714,13.8328571 17.9742857,13.8328571 17.9685714,13.8328571 C15.6885714,13.8328571 13.8314286,15.6885714 13.8314286,17.97 C13.8314286,17.9714286 13.8314286,17.9714286 13.8314286,17.9728571 C13.5342857,18.1185714 13.2342857,18.2457143 12.9328571,18.3528571 C12.93,18.35 12.9271429,18.3471429 12.9257143,18.3457143 C12.1442857,17.5642857 11.1057143,17.1342857 10.0014286,17.1342857 C8.89714286,17.1342857 7.85714286,17.5642857 7.07714286,18.3457143 C7.07428571,18.3485714 7.07142857,18.3514286 7.06857143,18.3542857 C6.76,18.2471429 6.46142857,18.1242857 6.17,17.9857143 C6.17,17.98 6.17,17.9757143 6.17,17.97 C6.17,15.69 4.31428571,13.8328571 2.03285714,13.8328571 C2.03142857,13.8328571 2.03142857,13.8328571 2.03,13.8328571 C1.88428571,13.5357143 1.75714286,13.2357143 1.65,12.9342857 C1.65285714,12.9314286 1.65571429,12.9285714 1.65714286,12.9271429 C3.27,11.3142857 3.27,8.69 1.65714286,7.07714286 C1.65285714,7.07142857 1.65,7.06857143 1.64714286,7.06571429 C1.75428571,6.75857143 1.87714286,6.45857143 2.01571429,6.16714286 C2.02142857,6.16714286 2.02571429,6.16714286 2.03142857,6.16714286 C4.31142857,6.16714286 6.16857143,4.31142857 6.16857143,2.03 L6.16857143,2.03 C6.46571429,1.88428571 6.76571429,1.75714286 7.06857143,1.65 C7.07,1.65285714 7.07285714,1.65428571 7.07571429,1.65714286 C7.85571429,2.43714286 8.89571429,2.86857143 10,2.86857143 C11.1042857,2.86857143 12.1442857,2.43857143 12.9242857,1.65714286 C12.9271429,1.65428571 12.9285714,1.65285714 12.9314286,1.65 C13.2342857,1.75857143 13.5328571,1.88571429 13.8314286,2.03 L13.8314286,2.03142857 C13.8314286,4.31142857 15.6871429,6.16857143 17.9685714,6.16857143 C17.97,6.16857143 17.97,6.16857143 17.9714286,6.16857143 C18.1171429,6.46571429 18.2442857,6.76571429 18.3514286,7.06714286 C18.3485714,7.07 18.3457143,7.07285714 18.3442857,7.07428571 C16.7314286,8.68714286 16.7314286,11.3114286 18.3442857,12.9242857 C18.3471429,12.9271429 18.35,12.93 18.3528571,12.9328571 C18.2457143,13.24 18.1214286,13.5414286 17.9842857,13.8328571 Z"></path>
            <path d="M10,6 C7.79189944,6 6,7.79081544 6,9.99930155 C6,12.2077877 7.79189944,14 10,14 C12.2081006,14 14,12.2091846 14,9.99930155 C14,7.78941854 12.2081006,6 10,6 Z M10,12.604505 C8.56284916,12.604505 7.39385475,11.4353064 7.39385475,9.99930155 C7.39385475,8.56329666 8.56284916,7.39270124 10,7.39270124 C11.4371508,7.39270124 12.6061453,8.56189977 12.6061453,9.99930155 C12.6061453,11.4367033 11.4371508,12.604505 10,12.604505 Z"></path>
        </g>
    </g>
</svg>