<?xml version="1.0" encoding="UTF-8"?>
<svg width="25px" height="25px" viewBox="0 0 25 25" version="1.1" xmlns="http://www.w3.org/2000/svg" xmlns:xlink="http://www.w3.org/1999/xlink">
    <title>icons/preferences</title>
    <g id="icons/preferences" stroke="none" stroke-width="1" fill="none" fill-rule="evenodd">
        <path d="M9.85953152,2.95683306 C10.4833445,3.72388653 11.4345749,4.21290323 12.5,4.21290323 C13.5391636,4.21290323 14.469744,3.74765045 15.0946248,3.01401433 C15.9846808,3.19570677 16.7989688,3.53809022 17.5463234,3.98114927 C17.5760857,5.2076826 17.960953,5.93969338 18.5106298,6.4893702 C19.0730469,7.05178732 19.831214,7.41845453 20.6742924,7.47847094 C21.4152703,8.19651586 21.8020741,9.00359936 22.043212,9.85906613 C21.2759085,10.4836208 20.7870968,11.4347743 20.7870968,12.5 C20.7870968,13.5656055 21.27634,14.517028 22.0424666,15.1417691 C21.8080879,15.9948682 21.4610631,16.8020743 21.019096,17.5463175 C19.792415,17.5760344 19.0603433,17.9609163 18.5106298,18.5106298 C17.9482127,19.0730469 17.5815455,19.831214 17.5215291,20.6742924 C16.8034842,21.4152698 15.9964018,21.8020658 15.1409528,22.0430801 C14.516875,21.2762389 13.565538,20.7870968 12.5,20.7870968 C11.4340996,20.7870968 10.4824455,21.276611 9.85773684,22.0431389 C9.00505293,21.8081496 8.19792678,21.4610703 7.45368253,21.019096 C7.42396563,19.792415 7.03908365,19.0603433 6.4893702,18.5106298 C5.92695307,17.9482127 5.16878603,17.5815455 4.32571701,17.5215256 C3.58469501,16.8033821 3.19784656,15.9961881 2.95679972,15.140623 C3.72348307,14.5172918 4.21290323,13.5658166 4.21290323,12.5 C4.21290323,11.4338946 3.72320054,10.4820794 2.95643497,9.85750755 C3.19190082,9.00481852 3.53899481,8.19780493 3.98090399,7.45368253 C5.20758501,7.42396563 5.93965674,7.03908365 6.4893702,6.4893702 C7.05178732,5.92695307 7.41845453,5.16878603 7.4784744,4.32571702 C8.1966185,3.58469514 9.00382163,3.19784866 9.85953152,2.95683306 Z" id="Combined-Shape" stroke="#FFFFFF" stroke-width="1.2"></path>
        <circle id="Oval" stroke="#FFFFFF" stroke-width="1.2" cx="12.5" cy="12.5" r="3.9"></circle>
    </g>
</svg>