<?xml version="1.0" encoding="UTF-8"?>
<svg width="25px" height="25px" viewBox="0 0 25 25" version="1.1" xmlns="http://www.w3.org/2000/svg" xmlns:xlink="http://www.w3.org/1999/xlink">
    <title>icons/preferences</title>
    <g id="icons/preferences" stroke="none" stroke-width="1" fill="none" fill-rule="evenodd">
        <path d="M17.1535898,4.43974596 L21.8071797,12.5 L17.1535898,20.560254 L7.84641016,20.560254 L3.19282032,12.5 L7.84641016,4.43974596 L17.1535898,4.43974596 Z M12.5,8.4 C11.3678163,8.4 10.3428163,8.85890813 9.6008622,9.6008622 C8.85890813,10.3428163 8.4,11.3678163 8.4,12.5 C8.4,13.6321837 8.85890813,14.6571837 9.6008622,15.3991378 C10.3428163,16.1410919 11.3678163,16.6 12.5,16.6 C13.6321837,16.6 14.6571837,16.1410919 15.3991378,15.3991378 C16.1410919,14.6571837 16.6,13.6321837 16.6,12.5 C16.6,11.3678163 16.1410919,10.3428163 15.3991378,9.6008622 C14.6571837,8.85890813 13.6321837,8.4 12.5,8.4 Z" id="Combined-Shape" stroke="#FFFFFF" stroke-width="1.2"></path>
    </g>
</svg>