<svg width="25" height="25" viewBox="0 0 25 25" fill="none" xmlns="http://www.w3.org/2000/svg">
<path d="M6 4.75H15.5518C15.9265 4.75 16.2821 4.91805 16.5195 5.20801L19.9678 9.42285C20.1503 9.64609 20.25 9.92553 20.25 10.2139V19C20.25 19.6904 19.6904 20.25 19 20.25H6C5.30964 20.25 4.75 19.6904 4.75 19V6C4.75 5.30964 5.30964 4.75 6 4.75Z" stroke="white" stroke-width="1.5"/>
<path d="M15 4.75C15.1381 4.75 15.25 4.86193 15.25 5V8C15.25 8.69036 14.6904 9.25 14 9.25H11C10.3096 9.25 9.75 8.69036 9.75 8V4.75H15Z" stroke="white" stroke-width="1.5"/>
<path d="M17 20.25C17.1381 20.25 17.25 20.1381 17.25 20V16C17.25 15.3096 16.6904 14.75 16 14.75H9C8.30964 14.75 7.75 15.3096 7.75 16V20.25H17Z" stroke="white" stroke-width="1.5"/>
</svg>
