<?xml version="1.0" encoding="UTF-8"?>
<svg width="25px" height="25px" viewBox="0 0 25 25" version="1.1" xmlns="http://www.w3.org/2000/svg" xmlns:xlink="http://www.w3.org/1999/xlink">
    <title>icons/search</title>
    <g id="icons/search" stroke="none" stroke-width="1" fill="none" fill-rule="evenodd">
        <path d="M13.0611704,3.11831322 C16.3748789,3.11831322 19.0611704,5.80460472 19.0611704,9.11831322 C19.0611704,12.140794 16.8263036,14.6412937 13.9189176,15.0574649 L13.9183132,22.4040275 L12.2040275,22.4040275 L12.2034231,15.0574649 C9.2960371,14.6412937 7.06117036,12.140794 7.06117036,9.11831322 C7.06117036,5.80460472 9.74746186,3.11831322 13.0611704,3.11831322 Z M13.0611704,4.83259893 C10.6942357,4.83259893 8.77545608,6.75137858 8.77545608,9.11831322 C8.77545608,11.4852479 10.6942357,13.4040275 13.0611704,13.4040275 C15.428105,13.4040275 17.3468846,11.4852479 17.3468846,9.11831322 C17.3468846,6.75137858 15.428105,4.83259893 13.0611704,4.83259893 Z" id="Combined-Shape" fill="#FFFFFF" transform="translate(13.0612, 12.7612) rotate(-45) translate(-13.0612, -12.7612)"></path>
    </g>
</svg>