<?xml version="1.0" encoding="UTF-8"?>
<svg width="25px" height="25px" viewBox="0 0 25 25" version="1.1" xmlns="http://www.w3.org/2000/svg" xmlns:xlink="http://www.w3.org/1999/xlink">
    <title>icons/stay-on-top-on</title>
    <g id="icons/stay-on-top-on" stroke="none" fill="none" stroke-width="1.5">
        <path d="M16.5843887,6 C16.5843887,6.01272696 16.5834169,6.02543533 16.5814817,6.0380143 L15.9125674,10.3859571 L15.8848708,10.5659846 L15.9428325,10.7386619 L17.3465082,14.920446 C17.3904447,15.05134 17.3199517,15.1930681 17.1890576,15.2370046 C17.1634172,15.2456112 17.13655,15.25 17.1095037,15.25 L7.89049633,15.25 C7.75242515,15.25 7.64049633,15.1380712 7.64049633,15 C7.64049633,14.9729536 7.64488518,14.9460865 7.65349177,14.920446 L9.05716754,10.7386619 L9.11512916,10.5659846 L9.08743262,10.3859571 L8.41851834,6.0380143 C8.39752362,5.90154864 8.49113131,5.77390179 8.62759697,5.75290708 C8.64017593,5.75097185 8.65288431,5.75 8.66561126,5.75 L16.3343887,5.75 C16.4724599,5.75 16.5843887,5.86192881 16.5843887,6 Z" id="Rectangle" stroke="#FFFFFF" fill="#FFFFFF" fill-rule="evenodd"></path>
        <line x1="12.5" y1="18" x2="12.5" y2="19.5" id="Line" stroke="#FFFFFF" stroke-linecap="square"></line>
    </g>
</svg>