<?xml version="1.0" encoding="UTF-8"?>
<svg width="25px" height="25px" viewBox="0 0 25 25" version="1.1" xmlns="http://www.w3.org/2000/svg" xmlns:xlink="http://www.w3.org/1999/xlink">
    <title>icons/stay-on-top-off</title>
    <g id="icons/stay-on-top-off" stroke="none" fill="none" fill-rule="evenodd" stroke-width="1">
        <g id="Group" transform="translate(11.8995, 13.4268) rotate(45) translate(-11.8995, -13.4268)translate(5.8995, 4.9268)" stroke="#FFFFFF">
            <path d="M9.83438874,0.75 C9.97245992,0.75 10.0843887,0.861928813 10.0843887,1 C10.0843887,1.01272696 10.0834169,1.02543533 10.0814817,1.0380143 L9.41256738,5.38595711 L9.38487084,5.56598463 L9.44283246,5.73866194 L10.8465082,9.92044602 C10.8904447,10.05134 10.8199517,10.1930681 10.6890576,10.2370046 C10.6634172,10.2456112 10.63655,10.25 10.6095037,10.25 L1.39049633,10.25 C1.25242515,10.25 1.14049633,10.1380712 1.14049633,10 C1.14049633,9.97295363 1.14488518,9.94608647 1.15349177,9.92044602 L2.55716754,5.73866194 L2.61512916,5.56598463 L2.58743262,5.38595711 L1.91851834,1.0380143 C1.89752362,0.901548642 1.99113131,0.773901792 2.12759697,0.752907076 C2.13702926,0.751455954 2.14653625,0.750546211 2.15607125,0.750182091 L2.17992389,0.74986342 Z" id="Rectangle" stroke-width="1.5"></path>
            <line x1="6.10050506" y1="12.8232233" x2="6.10050506" y2="16.3232233" id="Line" stroke-width="1.5" stroke-linecap="square"></line>
        </g>
    </g>
</svg>