<?xml version="1.0" encoding="UTF-8"?>
<svg width="25px" height="25px" viewBox="0 0 25 25" version="1.1" xmlns="http://www.w3.org/2000/svg" xmlns:xlink="http://www.w3.org/1999/xlink">
    <title>icons/trigger</title>
    <g id="icons/trigger" stroke="none" fill="none" fill-rule="evenodd">
        <path d="M14.6624689,4.28277515 L6.63802814,13.8356808 C6.60250562,13.8779695 6.6079907,13.941048 6.65027941,13.9765705 C6.66829524,13.9917038 6.69107021,14 6.71459862,14 L10.706992,14 C10.9831343,14 11.206992,14.2238576 11.206992,14.5 C11.206992,14.5283134 11.204587,14.5565756 11.1998031,14.5844819 L10.1623984,20.6360093 C10.1530668,20.6904437 10.1896298,20.7421363 10.2440643,20.7514679 C10.2790912,20.7574725 10.3146734,20.7444364 10.3375311,20.7172249 L18.3619719,11.1643192 C18.3974944,11.1220305 18.3920093,11.058952 18.3497206,11.0234295 C18.3317048,11.0082962 18.3089298,11 18.2854014,11 L14.293008,11 C14.0168657,11 13.793008,10.7761424 13.793008,10.5 C13.793008,10.4716866 13.795413,10.4434244 13.8001969,10.4155181 L14.8376016,4.36399074 C14.8469332,4.30955632 14.8103702,4.25786374 14.7559357,4.24853213 C14.7209088,4.24252751 14.6853266,4.25556361 14.6624689,4.28277515 Z" id="Path-31" fill="#FFFFFF"></path>
    </g>
</svg>