<?xml version="1.0" encoding="UTF-8"?>
<svg width="64px" height="64px" viewBox="0 0 64 64" version="1.1" xmlns="http://www.w3.org/2000/svg" xmlns:xlink="http://www.w3.org/1999/xlink">
    <title>icons/warning</title>
    <g id="icons/warning" stroke="none" stroke-width="1" fill="none" fill-rule="evenodd">
        <path d="M34.1434674,5.84320376 C34.9464399,6.28934801 35.6109894,6.94807414 36.0641835,7.74708892 L64,57 L0,57 L27.3443769,7.78546227 C28.685554,5.37160539 31.7296105,4.50202663 34.1434674,5.84320376 Z M31.7292994,43.6690141 C29.9490446,43.6690141 28.5,45.1394366 28.5,46.8957746 C28.5,48.6112676 29.9490446,50 31.7292994,50 C33.5509554,50 35,48.6112676 35,46.8957746 C35,45.1394366 33.5509554,43.6690141 31.7292994,43.6690141 Z M34.3375796,21 L28.955414,21 L28.955414,29.3323944 L29.9904459,41.3 L33.3025478,41.3 L34.3375796,29.3323944 L34.3375796,21 Z" id="Combined-Shape" fill="#FFFFFF"></path>
    </g>
</svg>