<?xml version="1.0" encoding="UTF-8"?>
<svg width="25px" height="25px" viewBox="0 0 25 25" version="1.1" xmlns="http://www.w3.org/2000/svg" xmlns:xlink="http://www.w3.org/1999/xlink">
    <title>icons/widget</title>
    <g id="icons/widget" stroke="none" stroke-width="1" fill="none" fill-rule="evenodd">
        <rect id="Rectangle-Copy" fill-opacity="0.1" fill="#FFFFFF" x="3" y="3" width="19" height="19" rx="3"></rect>
        <path d="M16.5,6.47182532 L18.6169048,10 L14.3830952,10 L16.5,6.47182532 Z" id="Rectangle" stroke="#FFFFFF"></path>
        <path d="M10.5,6 L10.5,10 L6.5,10 L6.5,6 L10.5,6 Z" id="Rectangle-Copy-2" stroke="#FFFFFF"></path>
        <path d="M16.5,14 C17.1903559,14 17.8153559,14.279822 18.267767,14.732233 C18.720178,15.1846441 19,15.8096441 19,16.5 C19,17.1903559 18.720178,17.8153559 18.267767,18.267767 C17.8153559,18.720178 17.1903559,19 16.5,19 C15.8096441,19 15.1846441,18.720178 14.732233,18.267767 C14.279822,17.8153559 14,17.1903559 14,16.5 C14,15.8096441 14.279822,15.1846441 14.732233,14.732233 C15.1846441,14.279822 15.8096441,14 16.5,14 Z" id="Rectangle-Copy-3" stroke="#FFFFFF"></path>
    </g>
</svg>