<?xml version="1.0" encoding="UTF-8"?>
<svg width="25px" height="25px" viewBox="0 0 25 25" version="1.1" xmlns="http://www.w3.org/2000/svg" xmlns:xlink="http://www.w3.org/1999/xlink">
    <title>icons/bucket</title>
    <g id="icons/bucket" stroke="none" stroke-width="1" fill="none" fill-rule="evenodd">
        <path d="M14.6195701,6.47373982 C15.0002815,6.40675567 15.3720807,6.50045439 15.6654354,6.70607754 C15.9468866,6.90335713 16.1561306,7.20365848 16.2317761,7.56392333 L16.2317761,7.56392333 L16.2618129,18.0510709 C16.2614028,18.339967 16.1722774,18.6139037 16.0158331,18.8415647 C15.8594952,19.069071 15.6359249,19.2503563 15.3662909,19.354228 C14.1068591,19.8399896 12.8026559,20.0828841 11.4536763,20.0828841 C10.0819647,20.0828841 8.7225146,19.8318269 7.37476826,19.3314387 C7.1002221,19.2296389 6.87189692,19.0477483 6.71225299,18.8181069 C6.55258559,18.5884316 6.46161852,18.3109933 6.46181231,18.0177429 L6.46181231,18.0177429 L6.46181224,7.91451852 C6.46199992,7.52791919 6.61887015,7.17799522 6.87234328,6.92476799 C7.11685881,6.68048968 7.45127011,6.52619445 7.82181777,6.51577489 C9.10097978,6.7070638 10.0807478,6.78719507 11.1001229,6.78719507 C12.2604891,6.78719507 13.4337168,6.68281173 14.6195701,6.47373982 Z" id="Rectangle" stroke="#FFFFFF" stroke-width="1.2" transform="translate(11.361812, 13.008272) rotate(45.000000) translate(-11.361812, -13.008272) "></path>
        <path d="M20.5055014,17.53125 C21.425976,17.53125 22.1721681,16.7850579 22.1721681,15.8645833 C22.1721681,15.2509336 21.6166125,14.1398225 20.5055014,12.53125 C19.3943903,14.1398225 18.8388348,15.2509336 18.8388348,15.8645833 C18.8388348,16.7850579 19.5850268,17.53125 20.5055014,17.53125 Z" id="Oval" fill="#FFFFFF"></path>
        <rect id="Rectangle" fill="#FFFFFF" x="10.8388348" y="8.53125" width="3" height="3" rx="1.5"></rect>
        <path d="M12.3388348,10.03125 C10.0055014,5.03125 8.50550143,2.69791667 7.83883476,3.03125 C7.1721681,3.36458333 7.39255651,5.1875 8.5,8.5" id="Path-5" stroke="#FFFFFF" stroke-width="1.2"></path>
    </g>
</svg>