<?xml version="1.0" encoding="UTF-8"?>
<svg width="64px" height="64px" viewBox="0 0 64 64" version="1.1" xmlns="http://www.w3.org/2000/svg" xmlns:xlink="http://www.w3.org/1999/xlink">
    <title>icons/rundown/empty</title>
    <g id="icons/rundown/empty" stroke="none" stroke-width="1" fill="none" fill-rule="evenodd">
        <path d="M4.99999989,10.0183903 L43.5,10 L43.5,10 L38,22 L4.99999985,22.018313 C4.44771549,22.0191743 3.99975185,21.5717075 3.99944537,21.0194229 C3.99944527,21.0192379 3.99944522,21.0190529 4,21.0188679 L4,11.0188679 C4.00047778,10.4667697 4.44790196,10.0191318 4.99999989,10.0183903 Z M4.99999996,25.4908608 L36,25.5 L36,25.5 L30.5,37.5 L4.99999994,37.490922 C4.44785437,37.4903694 4.00035606,37.0427118 4,36.490566 L4,26.490566 C3.99970523,25.9382813 4.44742048,25.490566 4.99970523,25.490566 C4.9998035,25.490566 4.99990177,25.4905661 4.99999996,25.4908608 Z M5,41 L28,41 L28,41 L22.5,53 L5,53 C4.44771525,53 4,52.5522847 4,52 L4,42 C4,41.4477153 4.44771525,41 5,41 Z" id="Combined-Shape" stroke="#FFFFFF" fill="#FFFFFF"></path>
        <path d="M5,10.0188679 L58.5471698,10.0188679 C59.0994546,10.0188679 59.5471698,10.4665832 59.5471698,11.0188679 L59.5471698,21.0188679 C59.5471698,21.5711527 59.0994546,22.0188679 58.5471698,22.0188679 L5,22.0188679 C4.44771525,22.0188679 4,21.5711527 4,21.0188679 L4,11.0188679 C4,10.4665832 4.44771525,10.0188679 5,10.0188679 Z M5,25.490566 L58.5471698,25.490566 C59.0994546,25.490566 59.5471698,25.9382813 59.5471698,26.490566 L59.5471698,36.490566 C59.5471698,37.0428508 59.0994546,37.490566 58.5471698,37.490566 L5,37.490566 C4.44771525,37.490566 4,37.0428508 4,36.490566 L4,26.490566 C4,25.9382813 4.44771525,25.490566 5,25.490566 Z M5,41 L58.5471698,41 C59.0994546,41 59.5471698,41.4477153 59.5471698,42 L59.5471698,52 C59.5471698,52.5522847 59.0994546,53 58.5471698,53 L5,53 C4.44771525,53 4,52.5522847 4,52 L4,42 C4,41.4477153 4.44771525,41 5,41 Z" id="Combined-Shape" stroke="#FFFFFF" stroke-linecap="round" stroke-dasharray="4,5"></path>
    </g>
</svg>